<svg width="100" height="100" viewBox="0 0 100 100" fill="none" xmlns="http://www.w3.org/2000/svg">
<path d="M46.5858 61.8932L46.5777 61.8897L46.552 61.8757C46.4018 61.7931 46.2529 61.7083 46.1052 61.6214C44.3293 60.5661 42.6697 59.3265 41.1538 57.923C38.4693 55.4182 35.625 51.7012 35.625 47.1232C35.625 43.7072 38.4997 40.9982 41.9693 40.9982C42.9339 40.9935 43.8871 41.2063 44.758 41.6207C45.629 42.0352 46.3953 42.6407 47 43.3922C47.6048 42.6405 48.3713 42.035 49.2425 41.6205C50.1137 41.206 51.0671 40.9933 52.0318 40.9982C55.5003 40.9982 58.375 43.7072 58.375 47.1232C58.375 51.7024 55.5307 55.4194 52.8462 57.9219C51.3304 59.3253 49.6707 60.565 47.8948 61.6202C47.7471 61.7075 47.5982 61.7927 47.448 61.8757L47.4223 61.8897L47.4142 61.8944L47.4107 61.8955C47.2842 61.9625 47.1432 61.9976 47 61.9976C46.8568 61.9976 46.7158 61.9625 46.5893 61.8955L46.5858 61.8932Z" fill="white"/>
<path d="M56.8933 59.9649L60.0833 53.7316H57.8833V49.6982L54.5833 55.9316H56.8933V59.9649ZM57.3333 62.1649C56.3189 62.1649 55.3656 61.9724 54.4733 61.5874C53.5811 61.2024 52.805 60.6799 52.145 60.0199C51.485 59.3599 50.9625 58.5838 50.5775 57.6916C50.1925 56.7993 50 55.846 50 54.8316C50 53.8171 50.1925 52.8638 50.5775 51.9716C50.9625 51.0793 51.485 50.3032 52.145 49.6432C52.805 48.9832 53.5811 48.4607 54.4733 48.0757C55.3656 47.6907 56.3189 47.4982 57.3333 47.4982C58.3478 47.4982 59.3011 47.6907 60.1933 48.0757C61.0856 48.4607 61.8617 48.9832 62.5217 49.6432C63.1817 50.3032 63.7042 51.0793 64.0892 51.9716C64.4742 52.8638 64.6667 53.8171 64.6667 54.8316C64.6667 55.846 64.4742 56.7993 64.0892 57.6916C63.7042 58.5838 63.1817 59.3599 62.5217 60.0199C61.8617 60.6799 61.0856 61.2024 60.1933 61.5874C59.3011 61.9724 58.3478 62.1649 57.3333 62.1649Z" fill="#894189"/>
<path d="M57.2667 59.4982L60.1667 53.8315H58.1667V50.1649L55.1667 55.8315H57.2667V59.4982ZM57.6667 61.4982C56.7444 61.4982 55.8778 61.3232 55.0667 60.9732C54.2556 60.6232 53.55 60.1482 52.95 59.5482C52.35 58.9482 51.875 58.2426 51.525 57.4315C51.175 56.6204 51 55.7537 51 54.8315C51 53.9093 51.175 53.0426 51.525 52.2315C51.875 51.4204 52.35 50.7149 52.95 50.1149C53.55 49.5149 54.2556 49.0399 55.0667 48.6899C55.8778 48.3399 56.7444 48.1649 57.6667 48.1649C58.5889 48.1649 59.4556 48.3399 60.2667 48.6899C61.0778 49.0399 61.7833 49.5149 62.3833 50.1149C62.9833 50.7149 63.4583 51.4204 63.8083 52.2315C64.1583 53.0426 64.3333 53.9093 64.3333 54.8315C64.3333 55.7537 64.1583 56.6204 63.8083 57.4315C63.4583 58.2426 62.9833 58.9482 62.3833 59.5482C61.7833 60.1482 61.0778 60.6232 60.2667 60.9732C59.4556 61.3232 58.5889 61.4982 57.6667 61.4982Z" fill="white"/>
</svg>
